<?xml version="1.0" standalone="no"?>
<!DOCTYPE svg PUBLIC "-//W3C//DTD SVG 20010904//EN"
 "http://www.w3.org/TR/2001/REC-SVG-20010904/DTD/svg10.dtd">
<svg version="1.0" xmlns="http://www.w3.org/2000/svg"
 width="300.000000pt" height="200.000000pt" viewBox="0 0 300.000000 200.000000"
 preserveAspectRatio="xMidYMid meet">
<metadata>
Created by potrace 1.10, written by Peter Selinger 2001-2011
</metadata>
<g transform="translate(0.000000,200.000000) scale(0.100000,-0.100000)"
fill="#000000" stroke="none">
<path d="M839 1377 c-114 -47 -195 -129 -220 -220 -18 -67 15 -128 75 -139 32
-5 29 19 -4 30 -59 21 -64 90 -11 174 73 115 276 188 371 132 54 -31 72 -76
67 -166 -3 -64 -10 -90 -41 -152 -65 -132 -170 -218 -268 -219 -26 0 -50 1
-53 4 -7 8 186 395 228 456 23 34 32 55 25 59 -20 13 -58 -49 -171 -278 l-112
-227 -52 1 c-62 2 -96 -21 -91 -60 6 -52 60 -54 119 -5 29 25 39 27 91 24 48
-2 69 2 112 23 182 89 302 373 216 511 -46 74 -171 97 -281 52z m-139 -576 c0
-5 -11 -16 -25 -25 -44 -29 -92 -15 -59 18 16 17 84 22 84 7z"/>
<path d="M2195 1308 c-27 -32 -73 -107 -113 -188 -69 -140 -88 -164 -159 -200
-54 -27 -88 -24 -88 9 0 18 10 27 49 42 86 32 125 93 76 119 -34 18 -85 -11
-124 -73 -35 -54 -120 -122 -138 -111 -14 9 -1 53 32 107 17 27 30 53 30 58 0
23 -22 4 -63 -54 -57 -79 -147 -145 -147 -107 0 6 14 37 30 70 33 66 37 88 16
96 -21 8 -74 -23 -133 -79 -29 -27 -53 -47 -53 -43 0 4 16 30 35 59 38 56 42
67 22 67 -7 0 -21 -15 -32 -32 -42 -72 -141 -159 -159 -141 -17 18 10 95 42
119 21 15 6 53 -24 60 -40 10 -77 -5 -121 -51 -98 -103 -66 -220 34 -123 29
28 33 30 33 12 0 -49 52 -58 99 -18 30 25 40 23 22 -6 -6 -8 -7 -18 -5 -22 3
-5 32 18 64 51 57 56 149 125 157 117 2 -2 -10 -31 -27 -64 -39 -72 -35 -102
12 -102 18 0 45 11 64 25 37 28 49 31 41 11 -7 -18 12 -36 38 -36 11 0 37 11
57 25 44 30 48 31 48 5 0 -52 90 -46 163 11 l37 30 0 -29 c0 -67 62 -71 148
-8 66 49 76 61 67 76 -4 7 -24 -5 -50 -29 -50 -46 -101 -75 -121 -67 -8 3 -14
19 -14 39 0 26 12 47 62 102 119 134 207 276 194 311 -12 31 -54 15 -101 -38z
m55 -24 c-23 -47 -165 -244 -176 -244 -3 0 19 46 48 102 48 92 133 206 145
194 3 -3 -5 -26 -17 -52z m-296 -223 c7 -11 -45 -57 -75 -66 -35 -11 -33 3 4
40 34 34 60 44 71 26z m-654 -21 c0 -11 -5 -20 -11 -20 -6 0 -31 -23 -56 -50
-50 -56 -81 -76 -94 -63 -13 13 28 88 67 123 42 36 94 42 94 10z"/>
<path d="M1780 1155 c-19 -23 -1 -39 21 -19 10 9 19 21 19 26 0 13 -27 9 -40
-7z"/>
</g>
</svg>
